<?xml version="1.0" encoding="utf-8"?>
<!DOCTYPE svg PUBLIC "-//W3C//DTD SVG 1.1//EN" "http://www.w3.org/Graphics/SVG/1.1/DTD/svg11.dtd">
<svg version="1.1" xmlns="http://www.w3.org/2000/svg" xmlns:xlink="http://www.w3.org/1999/xlink" x="0px"
	 y="0px" width="1634.821px" height="1789.775px" viewBox="88.996 -0.012 1634.821 1789.775"
	 enable-background="new 88.996 -0.012 1634.821 1789.775" xml:space="preserve">
<g>
	<path fill="#A97FF1" d="M1220.795,846.597c0-121.171-43.065-224.821-129.194-310.95c-86.13-86.129-189.779-129.194-310.95-129.194
		c-121.171,0-224.82,43.065-310.949,129.194c-86.129,86.129-129.195,189.779-129.195,310.95
		c0,121.169,43.065,224.819,129.195,310.951c86.129,86.129,189.778,129.191,310.949,129.191c121.171,0,224.82-43.062,310.95-129.191
		C1177.729,1071.416,1220.795,967.766,1220.795,846.597z M1723.816,1664.007c0,34.06-12.444,63.533-37.335,88.42
		c-24.888,24.892-54.36,37.336-88.421,37.336c-35.368,0-64.844-12.444-88.421-37.336l-336.986-336
		c-117.24,81.217-247.908,121.824-392.003,121.824c-93.661,0-183.229-18.176-268.704-54.526
		c-85.474-36.352-159.159-85.475-221.054-147.37c-61.896-61.894-111.019-135.58-147.371-221.054
		c-36.351-85.474-54.526-175.042-54.526-268.704c0-93.661,18.175-183.229,54.526-268.704
		c36.352-85.475,85.475-159.159,147.371-221.055c61.895-61.895,135.58-111.019,221.054-147.369
		c85.475-36.352,175.043-54.527,268.704-54.527c93.659,0,183.229,18.175,268.704,54.527
		c85.475,36.351,159.159,85.474,221.054,147.369c61.896,61.896,111.019,135.58,147.37,221.055
		c36.35,85.475,54.526,175.043,54.526,268.704c0,144.095-40.606,274.764-121.825,392.002l336.985,336.986
		C1711.7,1599.819,1723.816,1629.293,1723.816,1664.007z"/>
	<linearGradient id="SVGID_1_" gradientUnits="userSpaceOnUse" x1="957.2949" y1="-0.0122" x2="957.2949" y2="397.5781">
		<stop  offset="0" style="stop-color:#11D38A"/>
		<stop  offset="1" style="stop-color:#0FB02C"/>
	</linearGradient>
	<path fill="url(#SVGID_1_)" d="M755.031,396.345c10.778-1.725,21.628,2.215,32.626,0.994
		C845.321,203.621,956.246,89.068,1159.526,45.12c0.932-33.564-17.716-39.159-33.258-45.132
		C929.022,61.008,798.703,188.704,755.031,396.345z"/>
	<linearGradient id="SVGID_2_" gradientUnits="userSpaceOnUse" x1="780.6455" y1="395.8511" x2="780.6454" y2="1289.5005">
		<stop  offset="0" style="stop-color:#9166D9"/>
		<stop  offset="1" style="stop-color:#8056C7"/>
	</linearGradient>
	<path fill="url(#SVGID_2_)" d="M1227.47,842.674c0-123.009-43.717-228.232-131.153-315.67
		c-87.438-87.436-192.66-131.153-315.671-131.153c-123.009,0-228.232,43.717-315.668,131.153
		c-87.437,87.438-131.155,192.661-131.155,315.67c0,123.009,43.719,228.233,131.155,315.671
		c87.437,87.436,192.66,131.154,315.668,131.154c123.011,0,228.232-43.719,315.671-131.154
		C1183.753,1070.907,1227.47,965.684,1227.47,842.674z"/>
</g>
</svg>
