<svg version="1.1" x="0px" y="0px" viewBox="0 0 505.098 141.369" enable-background="new 0 0 505.098 141.369">
	<g>
		<path fill="#FFFFFF" d="M505.048,139.526c-0.027,0.949,0.356,2.222-1.439,1.735c-0.355-0.097-0.761-0.014-1.144-0.014
			c-134.188,0-268.377,0-402.565,0c0.195-1.518,1.485-1.273,2.427-1.399c2.569-0.343,5.076-0.929,7.543-1.697
			c11.079-3.456,17.985-10.83,20.631-22.127c0.85-3.633,1.299-7.315,1.288-11.078c-0.058-18.83-0.027-37.66-0.024-56.49
			c0-1.242-0.04-2.486,0.101-3.724c0.222-1.955,1.292-3.126,3.23-3.491c2.162-0.406,4.345-0.68,6.531-0.893
			c2.646-0.257,2.786-2.03,2.774-4.111c-0.013-2.302-1.383-2.607-3.203-2.605c-9.559,0.009-19.117,0.013-28.675-0.003
			c-1.826-0.003-3.188,0.285-3.185,2.6c0.002,2.082,0.138,3.848,2.778,4.124c1.519,0.159,3.051,0.203,4.558,0.497
			c3.35,0.653,4.014,1.398,4.145,4.735c0.019,0.478,0.015,0.956,0.015,1.434c0.001,19.117,0.023,38.234-0.016,57.351
			c-0.009,4.616-0.72,9.127-2.485,13.447c-2.191,5.363-5.933,9.137-11.436,10.917c-7.844,2.538-15.822,2.652-23.723,0.331
			c-7.563-2.221-11.931-7.625-13.901-15.072c-1.99-7.519-1.282-15.166-0.885-22.789c0.263-0.757,0.914-1.189,1.466-1.7
			c3.784-3.495,5.179-7.829,4.528-12.876c-0.298-2.311-1.117-4.22-3.712-4.788c-0.834-0.183-1.626-0.543-2.123-1.325
			c-0.55-1.385-0.56-2.77-0.004-4.155c1.153-1.115,2.349-0.274,3.462,0.021c5.403,1.434,10.132,0.197,13.871-3.866
			c3.938-4.28,4.496-9.337,2.431-14.714c-1.079-2.81-3.321-4.619-5.613-6.359c-0.909-0.69-1.989-1.187-2.344-2.412
			c-0.709-5.36-0.709-5.365-6.118-5.361c-9.795,0.007-19.59-0.02-29.378,0.012c-1.76,1.778-4.014,2.664-6.255,3.679
			c-9.11,4.126-11.74,14.271-8.441,22.276c3.567,8.654,12.757,12.36,21.634,8.992c0.958-0.363,1.9-1.02,2.968-0.275
			c1.135,3.669,0.674,4.875-2.744,6.114c-1.732,0.628-2.498,1.506-2.097,3.367c0.307,1.426-0.048,2.879-0.422,4.221
			c-0.972,3.483,0.382,5.965,3.166,7.783c2.431,1.588,3.202,3.612,2.297,6.327c-0.852,1.062-1.757,0.345-2.562-0.016
			c-2.013-0.906-3.927-2.025-5.377-3.721c-1.007-1.179-1.849-1.512-2.991-0.198c-1.857,2.136-4.182,3.61-6.851,4.531
			c-1.918,0.662-2.623,2.059-2.551,3.99c0.163,4.403,2.185,7.808,6.096,9.645c3.947,1.854,7.824,1.125,11.225-1.722
			c0.953-0.797,1.563-1.937,2.651-2.595c0.311-0.046,0.57,0.047,0.783,0.277c0.895,2.831,0.878,5.81,1.426,8.699
			c2.618,13.804,10.122,21.422,23.853,24.317c1.502,0.316,3.511-0.172,4.319,1.877c-27.595,0-55.189-0.021-82.784,0.046
			c-1.79,0.004-2.198-0.404-2.194-2.195c0.066-27.594,0.046-55.188,0.046-82.783c1.855,0.121,1.962,1.881,2.672,2.987
			c4.084,6.361,11.827,8.541,18.255,5.043c2.966-1.614,3.375-2.511,2.556-5.719c-1.09-4.268-1.146-8.552,0.414-12.674
			c0.918-2.428,0.013-3.75-1.861-4.986c-6.902-4.551-15.72-2.229-19.88,5.213c-0.551,0.986-0.542,2.514-2.155,2.676
			C0.048,33.21,0.08,17.564,0,1.918c-0.009-1.63,0.381-1.888,1.928-1.883c20.797,0.063,41.595,0.042,62.393,0.042
			c-0.154,1.554-1.516,1.521-2.522,1.797C52.426,4.446,46.688,10.771,43.4,19.622c-0.864,2.327-1.66,4.684-2.165,7.127
			c-0.326,1.582,0.083,2.755,1.84,2.857c9.061,0.524,18.131,0.742,25.596-5.667C74.99,18.515,77.799,11.168,79.4,3.216
			c0.369-1.833-1.919-1.712-1.88-3.139c141.576,0,283.152,0.01,424.728-0.077c2.609-0.002,2.854,0.764,2.851,3.013
			c-0.068,42.826-0.05,85.653-0.05,128.479c-3.471,1.146-6.759,0.201-9.968-1.008c-1.136-0.428-1.53-1.646-1.676-2.839
			c-0.14-1.143-0.111-2.291-0.111-3.438c-0.004-12.145-0.026-24.289,0.017-36.434c0.009-2.794-0.271-5.544-0.886-8.251
			c-2.732-12.016-11.16-16.772-22.533-16.393c-8.132,0.272-15.463,3.269-22.2,7.753c-0.159,0.106-0.318,0.212-0.479,0.315
			c-3.785,2.424-4.537,2.094-5.305-2.323c-0.734-4.228-0.734-4.235-5.125-4.244c-3.538-0.006-7.08,0.09-10.613-0.026
			c-2.713-0.089-2.974,1.698-3.399,3.654c-0.44,2.021,0.336,3.055,2.212,3.603c7.964,2.325,7.465,3.016,7.466,10.79
			c0,14.153,0.006,28.306-0.004,42.459c-0.003,5.362-0.587,5.996-5.964,6.597c-1.698,0.19-3.499,0.04-3.768,2.534
			c-0.396,3.677,0.153,4.42,3.872,4.426c8.224,0.015,16.448-0.004,24.672,0.012c1.965,0.004,3.628-0.1,3.611-2.796
			c-0.019-2.947-0.428-3.624-3.201-4.045c-7.151-1.087-7.152-1.087-7.152-8.408c0-12.145,0.094-24.291-0.062-36.433
			c-0.043-3.375,1.153-5.62,3.95-7.326c6.378-3.892,12.973-6.971,20.721-6.502c5.61,0.34,9.308,3.062,11.044,8.411
			c1.1,3.386,1.594,6.902,1.611,10.452c0.054,10.901,0.04,21.803,0.01,32.705c-0.015,5.256-0.886,6.186-6.231,6.955
			c-3.153,0.453-4.448,2.715-3.333,5.688c0.331,0.884,0.967,1.106,1.751,1.212c0.855,0.114,1.718,0.079,2.578,0.08
			c8.128,0.004,16.257-0.01,24.385,0.012C502.353,138.687,503.834,138.485,505.048,139.526z"/>
		<path fill-rule="evenodd" clip-rule="evenodd" fill="#0A0A0B" d="M68.894,90.81c-0.311,6.971-0.588,13.951,0.631,20.864
			c1.824,10.344,8.088,16.149,18.633,17.647c4.791,0.681,9.554,0.563,14.279-0.248c9.833-1.69,15.544-7.915,16.956-18.217
			c0.416-3.036,0.606-6.081,0.603-9.147c-0.019-18.648-0.064-37.296,0.05-55.943c0.017-2.788-0.772-4.047-3.622-4.104
			c-2.091-0.042-4.17-0.588-6.263-0.667c-1.57-0.059-1.791-0.75-1.816-2.116c-0.114-6.092-0.156-6.092,6.01-6.092
			c9.372,0,18.744,0.06,28.114-0.048c1.99-0.023,2.569,0.478,2.538,2.504c-0.088,5.648-0.014,5.468-5.645,6.235
			c-7.564,1.031-6.662-0.569-6.675,7.314c-0.029,17.978-0.028,35.957,0.003,53.935c0.008,4.797-0.268,9.552-1.505,14.206
			c-3.66,13.766-14.188,22.386-28.939,23.779c-0.779,0.074-1.743-0.401-2.345,0.534c-4.974,0-9.947,0-14.92,0
			c-1.669-0.97-3.592-0.888-5.396-1.297c-13.865-3.149-22.125-12.322-23.855-26.54c-0.288-2.369-0.482-4.749-0.72-7.124
			c-1.275-2.892-0.692-5.916-0.457-8.865c0.104-1.293,0.283-2.592,0.31-3.895c0.589-1.493,1.844-1.058,2.918-0.929
			c2.487,0.299,4.941,0.315,7.389-0.318c1.467-0.379,2.36-1.12,2.36-2.752c0-5.727,0.016-11.454-0.011-17.181
			c-0.011-2.434-1.979-3.053-3.578-4.007c-1.405-0.84-2.25,0.328-3.282,0.969c-1.759,1.093-2.991,3.418-5.642,2.531
			c-0.315-1.399-0.065-2.831-0.247-4.237c2.048-2.083,4.246-3.966,5.623-6.705c5.313-10.572-0.503-22.756-12.093-25.126
			c-1.575-0.322-3.255-0.25-4.703-1.123c-0.308-0.572-0.235-1.166-0.099-1.762c11.913-0.033,23.827-0.043,35.739-0.128
			c1.429-0.01,1.778,0.485,1.716,1.808c-0.08,1.708,0.039,3.424,0.072,5.138c0.285,0.729,0.24,1.247-0.745,1.166
			c-3.42-2.432-10.583-1.538-13.137,1.625c-0.88,1.089-0.897,2.3-0.496,3.522c1.609,4.905,1.357,9.764-0.206,14.626
			c-0.392,1.22-0.309,1.246,0.844,2.775c0.098-4.298,0.663-8.576,0.384-12.889c-0.142-2.196-0.248-4.391,0.059-6.566
			c0.11-0.776,0.253-2.208,1.669-0.891c0.902,4.692,0.237,9.425,0.414,14.134c0.074,1.981,0.053,3.969-0.019,5.953
			c-0.037,1.039-0.072,2.097-0.932,2.877c-0.262,1.535-0.272,3.07,0.019,4.603c0.758,0.834,0.917,1.863,0.928,2.929
			c0.049,4.767,0.047,9.534,0.001,14.301C69.798,88.94,69.622,89.962,68.894,90.81z"/>
		<path fill-rule="evenodd" clip-rule="evenodd" fill="#0B0A0B" d="M505.048,139.526c-10.421-0.006-20.843-0.065-31.263,0.03
			c-2.019,0.019-2.798-0.299-2.729-2.579c0.167-5.446,0.027-5.45,5.312-6.245c4.461-0.671,4.508-0.718,4.51-5.187
			c0.002-10.708-0.002-21.416,0.002-32.123c0.002-3.643-0.204-7.276-1.193-10.792c-1.721-6.118-5.932-9.053-12.368-8.812
			c-8.08,0.303-14.842,3.833-21.146,8.538c-0.906,0.676-0.982,1.52-0.982,2.506c0.014,14.245,0.029,28.49-0.01,42.734
			c-0.005,1.873,0.598,2.891,2.595,2.879c0.754-0.004,1.505,0.257,2.263,0.349c5.77,0.702,5.688,0.7,5.747,6.364
			c0.02,1.851-0.443,2.388-2.344,2.368c-9.75-0.102-19.503-0.104-29.254,0.001c-1.944,0.021-2.347-0.598-2.331-2.411
			c0.049-5.624-0.027-5.624,5.432-6.391c4.344-0.61,4.344-0.61,4.344-5.137c0-15.68-0.049-31.359,0.048-47.038
			c0.016-2.612-0.686-4.245-3.394-4.671c-0.37-0.059-0.717-0.256-1.078-0.375c-6.08-2.009-6.034-2-4.844-8.207
			c0.228-1.188,0.606-1.601,1.803-1.591c5.448,0.047,10.898,0.064,16.348-0.012c1.284-0.018,1.66,0.542,1.793,1.625
			c0.21,1.706,0.614,3.403,0.657,5.11c0.057,2.171,0.726,2.13,2.281,1.046c5.757-4.012,11.909-7.186,18.878-8.557
			c4.365-0.859,8.749-0.994,13.101-0.114c9.125,1.847,14.725,8.1,16.377,17.957c0.541,3.225,0.64,6.459,0.64,9.71
			c0.001,12.046,0.056,24.092-0.044,36.138c-0.021,2.584,0.664,3.898,3.459,3.977c2.471,0.069,4.929,0.566,7.393,0.875
			C505.048,134.17,505.048,136.848,505.048,139.526z"/>
		<path fill-rule="evenodd" clip-rule="evenodd" fill="#A3D8C6" d="M77.52,0.077c3.073,0.503,3,2.322,2.356,4.831
			c-2.055,8.003-5.062,15.388-11.942,20.559c-3.919,2.947-8.426,4.514-13.219,4.94c-3.788,0.337-7.636,0.18-11.447,0.016
			c-3.023-0.131-3.503-0.894-2.793-3.777c1.679-6.818,3.995-13.296,9.052-18.513c3.442-3.551,7.525-5.756,12.247-6.971
			c0.884-0.228,1.917-0.218,2.548-1.085C68.72,0.077,73.12,0.077,77.52,0.077z"/>
		<path fill-rule="evenodd" clip-rule="evenodd" fill="#B3A4D0" d="M0.048,48.855c1.726-3.381,3.368-6.758,6.857-8.848
			c5.423-3.248,12.805-2.616,17.265,1.623c1.062,1.009,1.512,1.797,0.852,3.408c-1.98,4.836-2.138,9.858-0.315,14.789
			c0.62,1.677,0.151,2.616-1.053,3.664c-6.774,5.896-17.534,3.684-22.006-4.538c-0.489-0.899-0.622-2.031-1.6-2.637
			C0.048,53.829,0.048,51.342,0.048,48.855z"/>
		<path fill-rule="evenodd" clip-rule="evenodd" fill="#0B0B0B" d="M174.409,72.766c5.912-4.056,11.625-7.444,18.164-9.197
			c5.16-1.383,10.371-1.769,15.607-0.766c9.885,1.893,15.848,9.185,16.846,20.388c0.868,9.734,0.261,19.491,0.412,29.237
			c0.074,4.778,0.107,9.562-0.027,14.339c-0.068,2.396,0.456,3.792,3.201,3.823c1.99,0.023,3.968,0.567,5.964,0.736
			c1.21,0.103,1.526,0.566,1.593,1.771c0.354,6.415,0.396,6.413-6.008,6.413c-8.604,0-17.209-0.046-25.812,0.04
			c-1.731,0.018-2.263-0.396-2.259-2.208c0.012-5.771-0.076-5.771,5.53-6.636c4.246-0.655,4.247-0.655,4.248-5.036
			c0.001-11.186-0.008-22.371,0.006-33.557c0.004-3.261-0.198-6.486-1.161-9.63c-1.821-5.939-5.686-8.819-11.889-8.67
			c-8.287,0.199-15.25,3.742-21.663,8.681c-0.941,0.725-0.918,1.565-0.917,2.52c0.003,14.149,0.032,28.299-0.03,42.448
			c-0.009,2.068,0.727,3.015,2.786,3.029c0.755,0.006,1.505,0.261,2.264,0.349c6.15,0.713,6.445,1.145,5.685,7.33
			c-0.148,1.208-0.671,1.353-1.647,1.351c-10.229-0.017-20.459-0.01-30.689-0.011c-0.287,0-0.739,0.1-0.835-0.04
			c-1.408-2.038-0.355-4.352-0.68-6.519c-0.186-1.238,0.455-1.707,1.588-1.825c1.71-0.178,3.41-0.553,5.12-0.589
			c2.43-0.051,3.061-1.335,3.018-3.504c-0.08-4.014-0.023-8.03-0.023-12.046c0-11.95-0.095-23.902,0.065-35.851
			c0.042-3.123-0.948-4.909-4.025-5.458c-0.375-0.067-0.743-0.182-1.105-0.303c-5.813-1.94-5.846-2.059-4.256-8.148
			c0.294-1.125,0.739-1.513,1.918-1.498c5.353,0.064,10.708,0.06,16.061,0.006c1.275-0.013,1.857,0.279,1.957,1.697
			C173.574,67.699,174.01,69.946,174.409,72.766z"/>
		<path fill-rule="evenodd" clip-rule="evenodd" fill="#0B0A0B" d="M313.59,129.636c10.504,0,20.416-0.007,30.329,0.006
			c1.366,0.002,2.076-0.545,2.283-1.97c0.439-3.021,1.104-6.013,1.49-9.039c0.177-1.39,0.577-2.036,2.073-2.012
			c2.291,0.037,4.594-0.022,6.878-0.208c1.379-0.112,1.562,0.469,1.556,1.631c-0.04,6.598-0.062,13.195,0.013,19.792
			c0.018,1.462-0.536,1.7-1.829,1.698c-19.313-0.035-38.628-0.021-57.942-0.038c-0.593-0.001-1.678,0.301-1.603-0.626
			c0.248-3.037-1.033-6.184,1.198-9.089c13.616-17.727,27.14-35.526,40.689-53.305c0.617-0.81,1.188-1.656,2.055-2.868
			c-9.864,0-19.281,0.002-28.698-0.003c-1.019-0.001-1.612,0.523-1.845,1.461c-0.183,0.738-0.276,1.499-0.422,2.247
			c-1.608,8.254-1.608,8.22-10.053,8.106c-1.213-0.017-1.45-0.444-1.447-1.474c0.02-6.215,0.046-12.431-0.02-18.645
			c-0.014-1.321,0.474-1.613,1.666-1.565c2.005,0.08,4.016,0.021,6.023,0.021c16.255,0,32.51,0.042,48.764-0.051
			c2.11-0.012,2.62,0.473,2.748,2.64c0.227,3.854-0.916,6.84-3.287,9.903c-12.979,16.771-25.746,33.705-38.585,50.586
			C315.055,127.587,314.514,128.362,313.59,129.636z"/>
		<path fill-rule="evenodd" clip-rule="evenodd" fill="#0B0B0C" d="M272.928,96.62c0,9.744-0.002,19.487,0.001,29.231
			c0.002,4.267,0.006,4.283,4.292,4.857c1.986,0.266,3.979,0.544,5.977,0.642c1.276,0.062,1.485,0.585,1.539,1.747
			c0.299,6.414,0.335,6.412-5.968,6.412c-9.744,0-19.488-0.047-29.231,0.044c-1.754,0.017-2.231-0.399-2.225-2.19
			c0.022-6.039-0.047-5.911,6.068-6.547c7.04-0.732,6.021,0.202,6.04-6.629c0.042-15.189-0.034-30.378,0.06-45.566
			c0.016-2.599-0.679-4.248-3.383-4.694c-0.463-0.076-0.903-0.294-1.354-0.444c-5.752-1.904-5.665-1.888-4.648-7.795
			c0.273-1.586,0.798-1.984,2.319-1.964c6.113,0.08,12.229,0.104,18.34-0.011c1.797-0.034,2.227,0.499,2.214,2.243
			C272.886,76.177,272.927,86.398,272.928,96.62z"/>
		<path fill-rule="evenodd" clip-rule="evenodd" fill="#0B0B0B" d="M397.673,96.705c0,10.132,0.047,20.265-0.036,30.396
			c-0.019,2.199,0.486,3.493,2.952,3.416c0.941-0.029,1.889,0.273,2.84,0.355c6.708,0.581,6.668,0.572,5.994,7.254
			c-0.117,1.161-0.525,1.401-1.562,1.399c-11.47-0.025-22.939-0.015-34.41-0.019c-0.285,0-0.744,0.064-0.83-0.077
			c-1.309-2.178-0.309-4.577-0.607-6.862c-0.173-1.32,0.885-1.26,1.695-1.349c2.563-0.28,5.129-0.663,7.7-0.718
			c2.447-0.054,2.707-1.405,2.701-3.368c-0.04-14.624-0.021-29.248-0.021-43.873c0-1.912-0.056-3.826,0.015-5.734
			c0.067-1.801-0.702-2.888-2.428-3.354c-0.734-0.198-1.458-0.443-2.182-0.682c-5.999-1.984-5.969-1.979-4.678-8.153
			c0.235-1.129,0.627-1.612,1.846-1.603c6.499,0.05,12.999,0.078,19.498-0.008c1.986-0.026,1.502,1.255,1.504,2.297
			C397.679,76.25,397.672,86.478,397.673,96.705z"/>
		<path fill-rule="evenodd" clip-rule="evenodd" fill="#B3A4D0" d="M43.498,32.886c0.046,0.541,0.093,1.082,0.139,1.623
			c0.504,0.544,0.421,1.21,0.412,1.874c-0.052,3.453,0.241,3.802,3.753,4.125c1.697,0.156,3.386,0.321,5.058,0.664
			c1.329,0.272,2.289,0.873,2.443,2.349c0.146,6.951,0.025,13.9,0.073,20.848c0.009,1.359-0.292,2.628-0.805,3.866
			c-6.554,3.384-13.007,3.541-19.183-0.836c-6.098-4.321-8.169-10.526-7.095-17.608c1.06-6.987,5.313-11.79,12.065-13.949
			C42.138,35.272,42.973,34.428,43.498,32.886z"/>
		<path fill-rule="evenodd" clip-rule="evenodd" fill="#B3A4D0" d="M44.863,79.035c-0.064,5.968-3.771,11.19-9.157,13.136
			c-5.893,2.129-12.298,0.534-16.127-4.016c-3.828-4.548-4.588-11.093-1.896-16.038c0.519-0.954,1.083-1.747,2.223-2.044
			c2.339-0.609,4.439-1.722,6.231-3.348c1.054-0.956,1.831-0.646,2.626,0.321c3.684,4.484,8.499,6.865,14.19,7.657
			C46.08,75.139,44.29,77.719,44.863,79.035z"/>
		<path fill-rule="evenodd" clip-rule="evenodd" fill="#B3A4D0" d="M68.859,66.038c-0.207-7.829-0.389-15.657,0.106-23.482
			c0.13-0.363,0.316-0.773,0.674-0.858c3.534-0.836,7.061-1.816,10.749-0.983c0.728-0.013,0.415-0.68,0.636-1.011
			c9.411,4.774,12.077,14.585,6.122,22.562C84.148,66.281,76.965,69.977,68.859,66.038z"/>
		<path fill-rule="evenodd" clip-rule="evenodd" fill="#B3A4D0" d="M54.629,106.404c-2.758,4.841-8.167,6.863-13.441,5.022
			c-4.69-1.636-7.95-7.031-7.225-12.037c0.193-1.335,0.54-2.521,2.165-2.994c3.27-0.952,5.993-2.826,8.25-5.392
			c0.571-0.65,1.148-1.762,2.143-0.301c1.96,2.877,4.928,4.395,8.005,5.739C55.108,99.756,54.909,103.08,54.629,106.404z"/>
		<path fill-rule="evenodd" clip-rule="evenodd" fill="#A3D8C6" d="M23.825,4.67c5.437,0.69,10.592,2.148,14.705,6.107
			c1.534,1.477,2.355,2.949,1.128,5.228c-1.576,2.928-2.554,6.165-3.137,9.443c-0.412,2.314-1.393,2.417-3.313,1.673
			c-6.466-2.504-10.022-7.323-11.296-13.951c-0.393-2.04-0.663-4.109-0.676-6.225C21.223,4.974,21.971,4.345,23.825,4.67z"/>
		<path fill-rule="evenodd" clip-rule="evenodd" fill="#0C0B0C" d="M264.302,28.719c6.02,0.026,9.452,3.465,9.387,9.402
			c-0.064,5.929-3.551,9.317-9.557,9.289c-6.16-0.03-9.594-3.495-9.511-9.598C254.702,31.926,258.146,28.691,264.302,28.719z"/>
		<path fill-rule="evenodd" clip-rule="evenodd" fill="#0B0B0B" d="M398.328,38.093c-0.023,5.979-3.434,9.339-9.462,9.325
			c-6.137-0.015-9.573-3.468-9.533-9.579c0.038-5.862,3.505-9.141,9.645-9.12C395.036,28.74,398.353,32.064,398.328,38.093z"/>
		<path fill-rule="evenodd" clip-rule="evenodd" fill="#B2A3CE" d="M54.629,106.404c-0.034-3.321-0.068-6.642-0.103-9.962
			c0.468-2.729-0.068-4.742-2.764-6.389c-2.489-1.521-4.338-3.803-3.118-7.415c0.631-1.868,0.966-4.027,0.291-6.149
			c-0.403-1.268,0.199-2.012,1.638-2.401c4.485-1.212,4.143-0.6,3.999-5.851c0.019-8.425,0.039-16.849,0.058-25.273
			c1.417,0.475,1.349,1.747,1.369,2.831c0.111,6.254,0.081,12.51,0.024,18.765c-0.009,0.963-0.191,1.887-0.831,2.661
			c0.015,1.531,0.029,3.061,0.044,4.592c0.649,0.774,0.78,1.711,0.79,2.667c0.056,5.298,0.056,10.597,0,15.896
			c-0.01,0.955-0.139,1.893-0.79,2.667c-0.075,4.416-0.15,8.831-0.226,13.246C54.883,106.329,54.757,106.368,54.629,106.404z"/>
		<path fill-rule="evenodd" clip-rule="evenodd" fill="#B3A4D0" d="M68.894,90.81c-0.327-6.723-0.303-13.446-0.015-20.169
			c5.727,1.546,6.434,2.455,6.385,8.53C75.223,84.172,73.39,88.229,68.894,90.81z"/>
		<path fill-rule="evenodd" clip-rule="evenodd" fill="#060508" d="M55.235,93.041c-0.266-7.076-0.267-14.153,0-21.229
			c2.428-0.599,4.097-2.352,5.824-3.958c1.128-1.049,1.828-1.072,3.396-0.396c3.874,1.667,4.083,4.54,3.934,8.051
			c-0.207,4.865-0.134,9.747-0.008,14.617c0.044,1.702-0.685,2.345-2.134,2.791C62.576,94.044,58.912,93.632,55.235,93.041z"/>
		<path fill-rule="evenodd" clip-rule="evenodd" fill="#060508" d="M55.191,67.219c-0.039-7.074-0.064-14.149-0.134-21.222
			c-0.01-1.016,0.339-2.113-0.428-3.034c-0.242-1.171-1.232-0.974-2.031-1.09c-1.214-0.177-2.431-0.361-3.653-0.461
			c-6.104-0.498-6.277-0.713-5.308-6.903c11.531,0.048,19.761,8.014,19.529,18.936c-0.098,4.584-2.103,8.436-4.82,11.969
			C57.572,66.42,56.492,67.054,55.191,67.219z"/>
		<path fill-rule="evenodd" clip-rule="evenodd" fill="#060508" d="M80.389,40.714c-3.754,0.943-7.716,0.603-11.423,1.841
			c-1.025,0.805-0.603,1.944-0.61,2.939c-0.039,5.737-0.003,11.474-0.037,17.211c-0.005,0.814,0.402,1.81-0.398,2.413
			c-0.588,0.443-1.047-0.222-1.408-0.612c-0.74-0.8-2.06-1.451-1.369-2.833c0.738-1.479,0.973-3.08,1.446-4.622
			c1.114-3.63,0.551-7.188-0.694-10.63c-1.005-2.78-0.162-4.525,2.354-5.871c3.138-1.678,6.416-2.441,9.918-1.862
			C79.187,38.856,80.597,39.013,80.389,40.714z"/>
	</g>
</svg>
