<?xml version="1.0" encoding="utf-8"?>
<!-- Generator: Adobe Illustrator 16.0.4, SVG Export Plug-In . SVG Version: 6.00 Build 0)  -->
<!DOCTYPE svg PUBLIC "-//W3C//DTD SVG 1.1//EN" "http://www.w3.org/Graphics/SVG/1.1/DTD/svg11.dtd">
<svg version="1.1" id="Layer_1" xmlns="http://www.w3.org/2000/svg" xmlns:xlink="http://www.w3.org/1999/xlink" x="0px" y="0px"
	 width="1634.822px" height="1789.775px" viewBox="88.995 -0.012 1634.822 1789.775"
	 enable-background="new 88.995 -0.012 1634.822 1789.775" xml:space="preserve">
<g>
	<path fill="#A97FF1" d="M1556.584,1167.104c0-167.042-59.368-309.932-178.103-428.669
		C1259.743,619.7,1116.855,560.332,949.811,560.332c-167.043,0-309.932,59.368-428.668,178.104
		c-118.735,118.737-178.105,261.627-178.105,428.669c0,167.041,59.369,309.932,178.105,428.671
		c118.736,118.735,261.625,178.101,428.668,178.101c167.044,0,309.932-59.365,428.671-178.101
		C1497.214,1477.036,1556.584,1334.146,1556.584,1167.104z"/>
	
		<linearGradient id="SVGID_1_" gradientUnits="userSpaceOnUse" x1="1463.3286" y1="1556.7881" x2="1463.3286" y2="1008.6787" gradientTransform="matrix(1 0 0 -1 -270 1556.7754)">
		<stop  offset="0" style="stop-color:#11D38A"/>
		<stop  offset="1" style="stop-color:#0FB02C"/>
	</linearGradient>
	<path fill="url(#SVGID_1_)" d="M914.492,546.397c14.857-2.377,29.815,3.054,44.978,1.371
		c79.494-267.055,232.413-424.976,512.651-485.561c1.283-46.271-24.422-53.984-45.849-62.219
		C1154.352,84.109,974.698,260.148,914.492,546.397z"/>
	
		<linearGradient id="SVGID_2_" gradientUnits="userSpaceOnUse" x1="1219.8032" y1="1011.0596" x2="1219.8032" y2="-220.9053" gradientTransform="matrix(1 0 0 -1 -270 1556.7754)">
		<stop  offset="0" style="stop-color:#9166D9"/>
		<stop  offset="1" style="stop-color:#8056C7"/>
	</linearGradient>
	<path fill="url(#SVGID_2_)" d="M1565.785,1161.696c0-169.577-60.267-314.635-180.804-435.175
		c-120.54-120.537-265.598-180.805-435.176-180.805c-169.58,0-314.637,60.268-435.175,180.805
		c-120.538,120.541-180.807,265.598-180.807,435.175c0,169.579,60.27,314.639,180.807,435.179
		c120.539,120.537,265.597,180.806,435.175,180.806s314.634-60.27,435.176-180.806
		C1505.518,1476.335,1565.785,1331.275,1565.785,1161.696z"/>
</g>
<g>
	<rect x="597.812" y="1098.116" fill="#FFFFFF" width="721.572" height="153.301"/>
	<rect x="881.948" y="813.98" fill="#FFFFFF" width="153.301" height="721.572"/>
</g>
</svg>
